<?xml version="1.0" standalone="no"?>
<!DOCTYPE svg PUBLIC "-//W3C//DTD SVG 20010904//EN"
 "http://www.w3.org/TR/2001/REC-SVG-20010904/DTD/svg10.dtd">
<svg version="1.0" xmlns="http://www.w3.org/2000/svg"
 width="550.000000pt" height="550.000000pt" viewBox="0 0 550.000000 550.000000"
 preserveAspectRatio="xMidYMid meet">

<g transform="translate(0.000000,550.000000) scale(0.100000,-0.100000)"
fill="#000000" stroke="none">
<path d="M2565 5480 c-491 -36 -931 -187 -1345 -461 -969 -642 -1423 -1837
-1128 -2974 85 -329 259 -685 471 -964 432 -569 1060 -941 1778 -1053 193 -30
601 -32 779 -5 620 96 1149 358 1571 777 187 186 308 346 444 585 358 629 455
1360 273 2060 -86 332 -245 659 -465 953 -113 153 -372 411 -523 524 -404 301
-857 486 -1332 542 -161 20 -385 26 -523 16z m707 -900 c537 -39 867 -243 907
-559 27 -215 -45 -430 -198 -594 -149 -159 -375 -299 -544 -338 -31 -8 -57
-16 -57 -20 0 -4 28 -10 61 -13 156 -18 350 -86 472 -165 298 -195 331 -596
80 -974 -94 -141 -308 -332 -556 -496 -357 -236 -786 -415 -1082 -451 -237
-29 -582 47 -725 160 -105 83 -88 203 47 339 35 35 62 65 60 67 -2 2 -21 -1
-43 -7 -21 -6 -69 -9 -106 -7 -131 10 -228 98 -243 222 -16 126 81 499 332
1271 149 462 188 568 267 739 35 74 42 96 28 91 -330 -136 -407 -82 -273 191
28 55 70 127 94 160 152 207 567 353 1087 383 210 12 241 12 392 1z"/>
<path d="M2902 4089 c-18 -6 -37 -19 -42 -32 -10 -22 -280 -951 -280 -961 0
-14 96 -4 153 15 140 47 345 208 458 360 97 131 136 258 118 384 -18 132 -76
197 -204 231 -57 16 -154 17 -203 3z"/>
<path d="M2505 2843 c-31 -120 -156 -494 -206 -621 -91 -228 -199 -420 -296
-523 -27 -29 -43 -53 -37 -58 15 -15 322 -99 424 -117 126 -22 289 -15 380 16
163 54 302 190 408 397 150 293 143 539 -20 702 -75 75 -164 115 -335 151
-159 33 -192 44 -247 89 -21 17 -42 31 -46 31 -4 0 -15 -30 -25 -67z"/>
</g>
</svg>
